HIERARCHY
ROOT Hips
{
	OFFSET -72.282547 91.867981 178.233994
	CHANNELS 6 Xposition Yposition Zposition Zrotation Yrotation Xrotation 
	JOINT LeftUpLeg
	{
		OFFSET 0.103457 1.857823 10.548503
		CHANNELS 3 Xrotation Yrotation Zrotation
		JOINT LeftLeg
		{
			OFFSET 43.499996 -0.000034 0.000002
			CHANNELS 3 Xrotation Yrotation Zrotation
			JOINT LeftFoot
			{
				OFFSET 42.372192 0.000011 -0.000001
				CHANNELS 3 Xrotation Yrotation Zrotation
				JOINT LeftToe
				{
					OFFSET 17.300007 0.000003 0.000000
					CHANNELS 3 Xrotation Yrotation Zrotation
					End Site
					{
						OFFSET 0.000000 0.000000 0.000000
					}
				}
			}
		}
	}
	JOINT RightUpLeg
	{
		OFFSET 0.103457 1.857824 -10.548503
		CHANNELS 3 Xrotation Yrotation Zrotation
		JOINT RightLeg
		{
			OFFSET 43.500046 -0.000027 0.000015
			CHANNELS 3 Xrotation Yrotation Zrotation
			JOINT RightFoot
			{
				OFFSET 42.372261 0.000004 0.000017
				CHANNELS 3 Xrotation Yrotation Zrotation
				JOINT RightToe
				{
					OFFSET 17.299995 -0.000004 -0.000002
					CHANNELS 3 Xrotation Yrotation Zrotation
					End Site
					{
						OFFSET 0.000000 0.000000 0.000000
					}
				}
			}
		}
	}
	JOINT Spine
	{
		OFFSET 6.901969 -2.603723 -0.000001
		CHANNELS 3 Xrotation Yrotation Zrotation
		JOINT Spine1
		{
			OFFSET 12.588095 -0.000003 0.000006
			CHANNELS 3 Xrotation Yrotation Zrotation
			JOINT Spine2
			{
				OFFSET 12.343204 0.000006 -0.000008
				CHANNELS 3 Xrotation Yrotation Zrotation
				JOINT Neck
				{
					OFFSET 25.832893 -0.000006 0.000003
					CHANNELS 3 Xrotation Yrotation Zrotation
					JOINT Head
					{
						OFFSET 11.766609 -0.000008 0.000000
						CHANNELS 3 Xrotation Yrotation Zrotation
						End Site
						{
							OFFSET 0.000000 0.000000 0.000000
						}
					}
				}
				JOINT LeftShoulder
				{
					OFFSET 19.745899 -1.480379 6.000108
					CHANNELS 3 Xrotation Yrotation Zrotation
					JOINT LeftArm
					{
						OFFSET 11.284125 -0.000006 -0.000023
						CHANNELS 3 Xrotation Yrotation Zrotation
						JOINT LeftForeArm
						{
							OFFSET 33.000050 -0.000002 0.000027
							CHANNELS 3 Xrotation Yrotation Zrotation
							JOINT LeftHand
							{
								OFFSET 25.200008 0.000014 0.000008
								CHANNELS 3 Xrotation Yrotation Zrotation
								End Site
								{
									OFFSET 0.000000 0.000000 0.000000
								}
							}
						}
					}
				}
				JOINT RightShoulder
				{
					OFFSET 19.746098 -1.480379 -6.000071
					CHANNELS 3 Xrotation Yrotation Zrotation
					JOINT RightArm
					{
						OFFSET 11.284139 -0.000009 -0.000009
						CHANNELS 3 Xrotation Yrotation Zrotation
						JOINT RightForeArm
						{
							OFFSET 33.000092 0.000008 0.000008
							CHANNELS 3 Xrotation Yrotation Zrotation
							JOINT RightHand
							{
								OFFSET 25.199780 0.000137 0.000422
								CHANNELS 3 Xrotation Yrotation Zrotation
								End Site
								{
									OFFSET 0.000000 0.000000 0.000000
								}
							}
						}
					}
				}
			}
		}
	}
}
MOTION
Frames: 7
Frame Time: 0.033333
-105.798401 90.441643 -388.795990 92.730705 -6.502587 -131.686006 -178.231218 10.730196 -179.387460 -21.321687 -3.419602 -15.624596 88.175638 11.101107 2.333883 21.454555 0.003101 0.000017 154.362945 4.578106 -175.445935 -67.212941 -7.374818 3.436515 76.836800 -1.011254 4.356682 21.454541 -0.003087 0.000000 8.764759 -0.854886 0.094976 7.516502 -1.714055 0.134368 7.198263 -1.713337 0.144709 -7.749983 1.454687 15.490925 -6.565512 -4.940658 16.959320 150.460229 -72.006402 29.033287 -8.955142 52.082668 10.624811 -54.680695 -15.602314 1.978653 10.472264 -11.477972 16.389114 179.649466 72.189820 0.961601 -1.581636 -59.878363 -40.014298 -26.097653 14.200335 -1.108709 15.062485 14.538263 5.778861 
-103.760597 90.156273 -390.956604 92.382482 -6.507236 -130.653596 -176.761539 10.698393 -179.190027 -22.154303 -3.457569 -14.978304 89.537168 10.519454 1.779457 21.454560 0.003098 0.000018 153.072339 4.191195 -175.493583 -58.887289 -7.333052 2.044186 76.663396 -0.265470 3.538198 21.454563 -0.003102 0.000000 8.779121 -0.828309 -0.038907 7.547111 -1.652272 -0.131662 7.228867 -1.653170 -0.121684 -7.942730 2.027737 15.419038 -6.506168 -5.291988 17.166579 149.457298 -72.184397 30.046487 -9.780619 51.338697 9.476464 -58.168896 -15.031752 2.065248 9.217531 -11.537333 17.161858 -179.713629 72.082401 1.614927 -0.460074 -60.055777 -41.397572 -26.084796 14.197965 -1.108347 15.366473 14.294590 5.597506 
-101.786697 89.787903 -393.247589 91.920672 -6.540853 -129.458190 -175.070794 10.776199 -178.699879 -22.578819 -3.536161 -14.383627 90.872696 10.011022 1.336904 21.454558 0.003122 0.000019 153.073378 4.510498 -175.273938 -48.273373 -6.032531 0.609417 75.726164 0.750794 3.635335 21.454553 -0.003102 0.000000 8.810767 -0.799182 -0.159409 7.611989 -1.586105 -0.370979 7.293773 -1.588448 -0.361393 -8.622515 2.098715 15.437360 -6.206793 -5.264380 17.165087 149.066830 -72.315618 30.436474 -10.951616 50.844792 8.086123 -60.742102 -14.403599 2.118383 8.485606 -11.488645 17.842505 -179.344484 72.178427 1.996827 0.473865 -59.967695 -42.519502 -26.741707 14.141233 -1.115648 14.235877 11.748306 2.751446 
-99.819077 89.345016 -395.701813 91.165328 -6.603444 -128.066197 -173.289945 11.083299 -178.117687 -22.721053 -3.511390 -13.713739 91.997812 9.472542 0.889341 21.454560 0.003108 0.000017 154.091267 5.604596 -174.625425 -36.016820 -3.503879 -1.269623 73.507944 2.128440 3.780836 21.454560 -0.003102 -0.000002 8.783329 -0.824069 -0.270508 7.558810 -1.628667 -0.594228 7.240590 -1.632369 -0.584381 -8.911276 2.364700 15.326067 -6.287782 -5.539484 17.221738 148.215706 -72.558725 31.289015 -11.825436 50.868418 6.872435 -62.583685 -13.737139 2.143161 8.158127 -11.223538 18.572830 -179.485692 71.996689 1.847799 1.662246 -59.607409 -43.398383 -27.685849 14.218407 -1.136869 12.930023 8.426525 -0.414770 
-97.840988 89.025681 -398.177704 90.578219 -6.450599 -126.386818 -171.075079 10.864501 -177.175162 -21.936823 -3.651245 -12.940579 92.699812 8.913748 0.595349 21.454555 0.003097 0.000015 156.147700 6.615798 -173.301406 -23.401878 -0.409003 -2.656080 70.889973 3.889420 6.015737 21.454557 -0.003092 -0.000002 8.734314 -0.787707 -0.368330 7.461767 -1.550020 -0.786630 7.143576 -1.554872 -0.777271 -9.252921 2.658688 15.165609 -6.109050 -6.048909 17.280314 147.426915 -72.568492 32.093502 -12.395763 51.022278 6.484662 -63.606034 -13.373460 2.157846 8.000160 -11.219257 18.964633 -179.261101 71.873015 2.076721 2.589396 -59.311744 -44.012400 -28.843578 14.567750 -1.180118 12.191118 5.126470 -1.610276 
-95.874283 88.832977 -400.539612 90.459012 -6.116676 -124.599220 -168.759986 9.859891 -176.203963 -20.967974 -3.989961 -12.084404 93.070015 8.331112 0.373809 21.454558 0.003111 0.000016 158.170215 7.180892 -171.949165 -14.526233 2.745277 -3.767690 70.136289 5.188638 7.513930 21.454555 -0.003089 0.000002 8.714066 -0.641771 -0.421076 7.420546 -1.255240 -0.882387 7.102417 -1.260665 -0.874806 -9.477516 2.791301 15.138797 -5.881266 -6.542345 17.404843 147.033291 -72.323295 32.512595 -12.842883 51.243511 6.815235 -63.698570 -13.316756 2.157564 8.026067 -11.214493 19.120715 -178.377507 71.885794 2.986994 2.888866 -59.118101 -43.590855 -30.017920 14.610550 -1.205028 12.301412 3.238330 -1.440734 
-93.910439 88.651382 -402.625214 90.549505 -5.522523 -123.076689 -167.459805 8.452902 -175.917587 -21.331405 -4.259476 -11.193314 93.384901 7.698146 -0.137467 21.454555 0.003113 0.000019 158.376446 6.823599 -168.781269 -14.317207 2.734931 -5.975943 70.357833 7.199524 8.684883 21.454555 -0.003081 0.000003 8.643216 -0.480484 -0.399689 7.277223 -0.934865 -0.828742 6.959109 -0.939999 -0.823092 -9.419991 3.233774 15.174281 -5.527919 -6.701792 17.603986 146.936097 -72.129625 32.625618 -12.781169 51.675999 7.815345 -62.934422 -13.456272 2.137499 7.955993 -11.263998 19.056400 -177.847485 71.505203 3.526290 2.385739 -58.734525 -43.179705 -30.434121 14.780111 -1.224026 12.686285 3.341870 -0.139207 
